<?xml version="1.0" encoding="utf-8"?>
<svg width="515.04706px" height="375.3216px" viewBox="0 0 515.04706 375.3216" version="1.1" xmlns:xlink="http://www.w3.org/1999/xlink" xmlns="http://www.w3.org/2000/svg">
  <g id="Group-4">
    <g id="Group-3">
      <g id="Group-2" transform="translate(0 16.311789)">
        <path d="M162.538 0.391927L265.505 0.391927Q266.487 0.391927 267.467 0.440108Q268.448 0.488288 269.425 0.584533Q270.402 0.680778 271.374 0.824856Q272.345 0.968933 273.308 1.1605Q274.271 1.35206 275.224 1.59065Q276.176 1.82923 277.116 2.11427Q278.055 2.39931 278.98 2.73011Q279.904 3.0609 280.811 3.43667Q281.719 3.81243 282.606 4.23226Q283.494 4.65208 284.36 5.11496Q285.226 5.57783 286.068 6.08264Q286.91 6.58745 287.727 7.13297Q288.543 7.6785 289.332 8.26343Q290.121 8.84836 290.88 9.47128Q291.639 10.0942 292.366 10.7536Q293.094 11.413 293.788 12.1074Q294.482 12.8017 295.142 13.5292Q295.801 14.2568 296.424 15.0158Q297.047 15.7749 297.632 16.5635Q298.217 17.3522 298.763 18.1687Q299.308 18.9851 299.813 19.8273Q300.318 20.6695 300.781 21.5355Q301.243 22.4015 301.663 23.2891Q302.083 24.1768 302.459 25.084Q302.835 25.9911 303.165 26.9157Q303.496 27.8402 303.781 28.7798Q304.066 29.7195 304.305 30.672Q304.543 31.6245 304.735 32.5875Q304.927 33.5506 305.071 34.5219Q305.215 35.4931 305.311 36.4703Q305.407 37.4475 305.455 38.4283Q305.504 39.409 305.504 40.3909L305.504 312.35Q305.504 313.332 305.455 314.313Q305.407 315.294 305.311 316.271Q305.215 317.248 305.071 318.219Q304.927 319.19 304.735 320.154Q304.543 321.117 304.305 322.069Q304.066 323.022 303.781 323.961Q303.496 324.901 303.165 325.825Q302.835 326.75 302.459 327.657Q302.083 328.564 301.663 329.452Q301.243 330.34 300.781 331.206Q300.318 332.072 299.813 332.914Q299.308 333.756 298.763 334.572Q298.217 335.389 297.632 336.177Q297.047 336.966 296.424 337.725Q295.801 338.484 295.142 339.212Q294.482 339.939 293.788 340.634Q293.094 341.328 292.366 341.987Q291.639 342.647 290.88 343.27Q290.121 343.893 289.332 344.478Q288.543 345.063 287.727 345.608Q286.91 346.154 286.068 346.658Q285.226 347.163 284.36 347.626Q283.494 348.089 282.606 348.509Q281.719 348.929 280.811 349.304Q279.904 349.68 278.98 350.011Q278.055 350.342 277.116 350.627Q276.176 350.912 275.224 351.15Q274.271 351.389 273.308 351.581Q272.345 351.772 271.374 351.916Q270.402 352.06 269.425 352.157Q268.448 352.253 267.467 352.301Q266.487 352.349 265.505 352.349L162.538 352.349Q161.556 352.349 160.576 352.301Q159.595 352.253 158.618 352.157Q157.64 352.06 156.669 351.916Q155.698 351.772 154.735 351.581Q153.772 351.389 152.819 351.15Q151.867 350.912 150.927 350.627Q149.987 350.342 149.063 350.011Q148.138 349.68 147.231 349.304Q146.324 348.929 145.436 348.509Q144.549 348.089 143.683 347.626Q142.817 347.163 141.975 346.658Q141.132 346.154 140.316 345.608Q139.5 345.063 138.711 344.478Q137.922 343.893 137.163 343.27Q136.404 342.647 135.677 341.987Q134.949 341.328 134.255 340.634Q133.56 339.939 132.901 339.212Q132.241 338.484 131.619 337.725Q130.996 336.966 130.411 336.177Q129.826 335.389 129.28 334.572Q128.735 333.756 128.23 332.914Q127.725 332.071 127.262 331.206Q126.799 330.34 126.38 329.452Q125.96 328.564 125.584 327.657Q125.208 326.75 124.877 325.825Q124.547 324.901 124.262 323.961Q123.977 323.022 123.738 322.069Q123.499 321.117 123.308 320.154Q123.116 319.19 122.972 318.219Q122.828 317.248 122.732 316.271Q122.636 315.294 122.587 314.313Q122.539 313.332 122.539 312.35L122.539 40.3909Q122.539 39.409 122.587 38.4283Q122.636 37.4475 122.732 36.4703Q122.828 35.4931 122.972 34.5219Q123.116 33.5506 123.308 32.5875Q123.499 31.6245 123.738 30.672Q123.977 29.7195 124.262 28.7798Q124.547 27.8402 124.877 26.9157Q125.208 25.9911 125.584 25.084Q125.96 24.1768 126.38 23.2891Q126.799 22.4015 127.262 21.5355Q127.725 20.6695 128.23 19.8273Q128.735 18.9851 129.28 18.1687Q129.826 17.3522 130.411 16.5635Q130.996 15.7749 131.619 15.0158Q132.242 14.2568 132.901 13.5292Q133.56 12.8017 134.255 12.1074Q134.949 11.413 135.677 10.7536Q136.404 10.0942 137.163 9.47128Q137.922 8.84836 138.711 8.26343Q139.5 7.6785 140.316 7.13297Q141.132 6.58745 141.975 6.08264Q142.817 5.57783 143.683 5.11496Q144.549 4.65208 145.436 4.23226Q146.324 3.81243 147.231 3.43667Q148.138 3.0609 149.063 2.73011Q149.987 2.39931 150.927 2.11427Q151.867 1.82923 152.819 1.59065Q153.772 1.35206 154.735 1.1605Q155.698 0.968933 156.669 0.824856Q157.64 0.680778 158.618 0.584533Q159.595 0.488288 160.576 0.440108Q161.556 0.391927 162.538 0.391927Z" id="Rectangle-Copy-2" fill="#1976D2" fill-rule="evenodd" stroke="none" />
        <g id="Group">
          <path d="M0 175.979C0 78.7883 64.0835 0 143.134 0C222.185 0 286.269 78.7883 286.269 175.979C286.269 273.169 222.185 351.957 143.134 351.957C64.0835 351.957 0 273.169 0 175.979Z" id="Oval" fill="#1976D2" fill-rule="evenodd" stroke="none" />
        </g>
        <path d="M65.398 175.979C65.398 128.902 108.666 90.739 162.041 90.739C215.415 90.739 258.683 128.902 258.683 175.979C258.683 223.055 215.415 261.218 162.041 261.218C108.666 261.218 65.398 223.055 65.398 175.979Z" id="Oval" fill="#FFFFFF" fill-rule="evenodd" stroke="none" />
      </g>
      <path d="M413.75 18.6629L413.751 18.6642Q414.209 19.0672 414.647 19.4925Q415.084 19.9179 415.5 20.3645Q415.916 20.811 416.309 21.2778Q416.702 21.7445 417.072 22.2303Q417.441 22.716 417.786 23.2196Q418.13 23.7231 418.45 24.2432Q418.769 24.7632 419.062 25.2986Q419.355 25.8339 419.621 26.3831Q419.887 26.9324 420.125 27.4942Q420.363 28.056 420.573 28.629Q420.783 29.202 420.964 29.7847Q421.145 30.3674 421.297 30.9584Q421.449 31.5494 421.571 32.1473Q421.694 32.7451 421.786 33.3483Q421.879 33.9515 421.941 34.5585Q422.003 35.1656 422.035 35.775Q422.067 36.3844 422.068 36.9946Q422.07 37.6048 422.041 38.2144Q422.012 38.8239 421.953 39.4313Q421.894 40.0386 421.805 40.6423Q421.715 41.2459 421.596 41.8444Q421.477 42.4429 421.328 43.0346Q421.179 43.6264 421.001 44.21Q420.822 44.7937 420.615 45.3677Q420.408 45.9417 420.173 46.5047Q419.938 47.0677 419.674 47.6183Q419.411 48.1689 419.121 48.7057Q418.831 49.2425 418.514 49.7642Q418.198 50.2859 417.855 50.7911Q417.513 51.2964 417.146 51.784Q416.78 52.2716 416.389 52.7403Q415.998 53.2091 415.584 53.6578L304.538 174.131Q304.117 174.587 303.675 175.023Q303.233 175.458 302.77 175.872Q302.307 176.285 301.825 176.676Q301.343 177.067 300.842 177.434Q300.342 177.801 299.824 178.143Q299.306 178.486 298.773 178.803Q298.239 179.119 297.691 179.41Q297.142 179.701 296.581 179.965Q296.019 180.229 295.445 180.465Q294.871 180.702 294.287 180.91Q293.702 181.119 293.108 181.299Q292.514 181.478 291.912 181.63Q291.31 181.781 290.701 181.902Q290.093 182.024 289.479 182.116Q288.865 182.208 288.248 182.271Q287.63 182.333 287.01 182.366Q286.391 182.398 285.77 182.401Q285.149 182.403 284.529 182.375Q283.909 182.348 283.291 182.29Q282.673 182.233 282.059 182.146Q281.444 182.058 280.835 181.942Q280.225 181.825 279.622 181.678Q279.019 181.532 278.424 181.357Q277.828 181.182 277.242 180.978Q276.656 180.774 276.08 180.542Q275.504 180.311 274.94 180.051Q274.377 179.792 273.826 179.505Q273.275 179.219 272.739 178.906Q272.203 178.594 271.683 178.255Q271.162 177.917 270.659 177.554Q270.155 177.191 269.67 176.804Q269.185 176.417 268.719 176.008L268.717 176.006Q268.259 175.603 267.821 175.178Q267.384 174.753 266.968 174.306Q266.552 173.859 266.159 173.393Q265.766 172.926 265.397 172.44Q265.027 171.954 264.683 171.451Q264.338 170.947 264.019 170.427Q263.699 169.907 263.406 169.372Q263.113 168.837 262.848 168.287Q262.582 167.738 262.343 167.176Q262.105 166.614 261.895 166.041Q261.685 165.468 261.504 164.886Q261.323 164.303 261.171 163.712Q261.019 163.121 260.897 162.523Q260.775 161.925 260.682 161.322Q260.59 160.719 260.528 160.112Q260.465 159.505 260.433 158.895Q260.401 158.286 260.4 157.676Q260.398 157.066 260.427 156.456Q260.456 155.846 260.515 155.239Q260.574 154.632 260.664 154.028Q260.753 153.424 260.872 152.826Q260.992 152.228 261.141 151.636Q261.289 151.044 261.468 150.46Q261.646 149.877 261.853 149.303Q262.06 148.729 262.295 148.166Q262.531 147.603 262.794 147.052Q263.057 146.501 263.347 145.965Q263.637 145.428 263.954 144.906Q264.271 144.385 264.613 143.879Q264.955 143.374 265.322 142.886Q265.689 142.399 266.079 141.93Q266.47 141.461 266.884 141.013L377.931 20.5395Q378.351 20.0832 378.794 19.6477Q379.236 19.2122 379.698 18.7986Q380.161 18.385 380.643 17.9942Q381.126 17.6035 381.626 17.2365Q382.127 16.8695 382.644 16.5272Q383.162 16.1848 383.696 15.8679Q384.229 15.551 384.778 15.2602Q385.326 14.9694 385.888 14.7055Q386.449 14.4416 387.023 14.2051Q387.597 13.9687 388.182 13.7602Q388.766 13.5518 389.36 13.3719Q389.954 13.1919 390.556 13.0409Q391.158 12.8899 391.767 12.7682Q392.375 12.6464 392.989 12.5543Q393.603 12.4621 394.22 12.3997Q394.838 12.3373 395.458 12.3048Q396.078 12.2723 396.698 12.2699Q397.319 12.2674 397.939 12.2949Q398.559 12.3225 399.177 12.3799Q399.795 12.4374 400.409 12.5247Q401.024 12.612 401.633 12.7288Q402.243 12.8457 402.846 12.9919Q403.449 13.1381 404.045 13.3133Q404.64 13.4885 405.226 13.6923Q405.813 13.8961 406.388 14.1279Q406.964 14.3598 407.528 14.6192Q408.092 14.8787 408.642 15.1651Q409.193 15.4514 409.729 15.7641Q410.265 16.0768 410.786 16.415Q411.306 16.7532 411.809 17.1162Q412.313 17.4792 412.798 17.8661Q413.284 18.253 413.75 18.6629Z" id="Rectangle" fill="#1976D2" fill-rule="evenodd" stroke="none" />
      <path d="M305.479 167.085L439.89 167.085Q440.497 167.085 441.104 167.115Q441.711 167.145 442.315 167.204Q442.92 167.264 443.521 167.353Q444.122 167.442 444.717 167.561Q445.313 167.679 445.902 167.827Q446.492 167.974 447.073 168.151Q447.654 168.327 448.226 168.532Q448.798 168.736 449.359 168.969Q449.921 169.201 450.47 169.461Q451.019 169.721 451.555 170.007Q452.091 170.293 452.612 170.606Q453.133 170.918 453.638 171.256Q454.143 171.593 454.631 171.955Q455.119 172.317 455.588 172.702Q456.058 173.088 456.508 173.496Q456.958 173.904 457.388 174.333Q457.817 174.763 458.225 175.213Q458.633 175.663 459.019 176.132Q459.404 176.602 459.766 177.09Q460.128 177.578 460.465 178.083Q460.803 178.588 461.115 179.109Q461.427 179.63 461.714 180.166Q462 180.702 462.26 181.251Q462.519 181.8 462.752 182.361Q462.984 182.922 463.189 183.494Q463.394 184.066 463.57 184.648Q463.746 185.229 463.894 185.818Q464.042 186.408 464.16 187.003Q464.279 187.599 464.368 188.2Q464.457 188.801 464.516 189.406Q464.576 190.01 464.606 190.617Q464.636 191.224 464.636 191.831L464.636 191.833Q464.636 192.441 464.606 193.047Q464.576 193.654 464.516 194.259Q464.457 194.863 464.368 195.464Q464.279 196.065 464.16 196.661Q464.042 197.257 463.894 197.846Q463.746 198.435 463.57 199.016Q463.394 199.598 463.189 200.17Q462.984 200.742 462.752 201.303Q462.519 201.864 462.26 202.413Q462 202.962 461.714 203.498Q461.427 204.034 461.115 204.555Q460.803 205.076 460.465 205.581Q460.128 206.086 459.766 206.574Q459.404 207.062 459.019 207.532Q458.633 208.001 458.225 208.451Q457.817 208.902 457.388 209.331Q456.958 209.761 456.508 210.169Q456.058 210.577 455.588 210.962Q455.119 211.347 454.631 211.709Q454.143 212.071 453.638 212.409Q453.133 212.746 452.612 213.058Q452.091 213.371 451.555 213.657Q451.019 213.943 450.47 214.203Q449.921 214.463 449.359 214.695Q448.798 214.928 448.226 215.133Q447.654 215.337 447.073 215.514Q446.492 215.69 445.902 215.837Q445.313 215.985 444.717 216.104Q444.122 216.222 443.521 216.311Q442.92 216.4 442.315 216.46Q441.711 216.519 441.104 216.549Q440.497 216.579 439.89 216.579L305.479 216.579Q304.871 216.579 304.265 216.549Q303.658 216.519 303.053 216.46Q302.449 216.4 301.848 216.311Q301.247 216.222 300.651 216.104Q300.055 215.985 299.466 215.837Q298.877 215.69 298.296 215.514Q297.714 215.337 297.142 215.133Q296.57 214.928 296.009 214.695Q295.448 214.463 294.899 214.203Q294.35 213.943 293.814 213.657Q293.278 213.371 292.757 213.058Q292.236 212.746 291.731 212.409Q291.226 212.071 290.738 211.709Q290.25 211.347 289.78 210.962Q289.311 210.577 288.861 210.169Q288.41 209.761 287.981 209.331Q287.551 208.902 287.143 208.451Q286.735 208.001 286.35 207.532Q285.965 207.062 285.603 206.574Q285.241 206.086 284.903 205.581Q284.566 205.076 284.254 204.555Q283.941 204.034 283.655 203.498Q283.369 202.962 283.109 202.413Q282.849 201.864 282.617 201.303Q282.384 200.742 282.18 200.17Q281.975 199.598 281.799 199.016Q281.622 198.435 281.475 197.846Q281.327 197.257 281.208 196.661Q281.09 196.065 281.001 195.464Q280.912 194.863 280.852 194.259Q280.793 193.654 280.763 193.047Q280.733 192.441 280.733 191.833L280.733 191.831Q280.733 191.224 280.763 190.617Q280.793 190.01 280.852 189.406Q280.912 188.801 281.001 188.2Q281.09 187.599 281.208 187.003Q281.327 186.408 281.475 185.818Q281.622 185.229 281.799 184.648Q281.975 184.066 282.18 183.494Q282.384 182.922 282.617 182.361Q282.849 181.8 283.109 181.251Q283.369 180.702 283.655 180.166Q283.941 179.63 284.254 179.109Q284.566 178.588 284.903 178.083Q285.241 177.578 285.603 177.09Q285.965 176.602 286.35 176.132Q286.735 175.663 287.143 175.213Q287.551 174.763 287.981 174.333Q288.41 173.904 288.861 173.496Q289.311 173.088 289.78 172.702Q290.25 172.317 290.738 171.955Q291.226 171.593 291.731 171.256Q292.236 170.918 292.757 170.606Q293.278 170.293 293.814 170.007Q294.35 169.721 294.899 169.461Q295.448 169.201 296.009 168.969Q296.57 168.736 297.142 168.532Q297.714 168.327 298.296 168.151Q298.877 167.974 299.466 167.827Q300.055 167.679 300.651 167.561Q301.247 167.442 301.848 167.353Q302.449 167.264 303.053 167.204Q303.658 167.145 304.265 167.115Q304.871 167.085 305.479 167.085Z" id="Rectangle-2" fill="#1976D2" fill-rule="evenodd" stroke="none" />
      <path d="M439.301 216.579L439.303 216.579Q439.925 216.579 440.546 216.61Q441.167 216.64 441.786 216.701Q442.405 216.762 443.02 216.853Q443.635 216.945 444.245 217.066Q444.855 217.187 445.458 217.338Q446.062 217.489 446.657 217.67Q447.252 217.85 447.837 218.06Q448.423 218.269 448.997 218.507Q449.572 218.745 450.134 219.011Q450.696 219.277 451.245 219.57Q451.793 219.863 452.327 220.183Q452.86 220.503 453.377 220.848Q453.894 221.194 454.394 221.564Q454.893 221.935 455.374 222.329Q455.855 222.724 456.315 223.141Q456.776 223.559 457.216 223.999Q457.656 224.439 458.073 224.899Q458.491 225.36 458.885 225.841Q459.28 226.322 459.65 226.821Q460.021 227.321 460.366 227.838Q460.712 228.355 461.032 228.888Q461.351 229.421 461.644 229.97Q461.938 230.518 462.203 231.081Q462.469 231.643 462.707 232.217Q462.945 232.792 463.155 233.377Q463.364 233.963 463.545 234.558Q463.725 235.153 463.876 235.756Q464.028 236.36 464.149 236.969Q464.27 237.579 464.362 238.195Q464.453 238.81 464.514 239.429Q464.575 240.047 464.605 240.669Q464.636 241.29 464.636 241.912L464.636 349.989Q464.636 350.611 464.605 351.232Q464.575 351.853 464.514 352.472Q464.453 353.091 464.361 353.706Q464.27 354.321 464.149 354.931Q464.028 355.541 463.876 356.144Q463.725 356.748 463.545 357.343Q463.364 357.938 463.155 358.523Q462.945 359.109 462.707 359.683Q462.469 360.258 462.203 360.82Q461.938 361.382 461.644 361.931Q461.351 362.479 461.032 363.013Q460.712 363.546 460.366 364.063Q460.021 364.58 459.65 365.08Q459.28 365.579 458.885 366.06Q458.491 366.54 458.073 367.001Q457.656 367.462 457.216 367.902Q456.776 368.342 456.315 368.759Q455.855 369.177 455.374 369.571Q454.893 369.966 454.394 370.336Q453.894 370.707 453.377 371.052Q452.86 371.398 452.327 371.717Q451.793 372.037 451.245 372.33Q450.696 372.623 450.134 372.889Q449.572 373.155 448.997 373.393Q448.423 373.631 447.837 373.841Q447.252 374.05 446.657 374.231Q446.062 374.411 445.458 374.562Q444.855 374.714 444.245 374.835Q443.635 374.956 443.02 375.047Q442.405 375.139 441.786 375.2Q441.167 375.261 440.546 375.291Q439.925 375.322 439.303 375.322L439.301 375.322Q438.679 375.322 438.058 375.291Q437.437 375.261 436.818 375.2Q436.199 375.139 435.584 375.047Q434.969 374.956 434.359 374.835Q433.749 374.713 433.146 374.562Q432.543 374.411 431.947 374.231Q431.352 374.05 430.767 373.841Q430.181 373.631 429.607 373.393Q429.032 373.155 428.47 372.889Q427.908 372.623 427.359 372.33Q426.811 372.037 426.278 371.717Q425.744 371.398 425.227 371.052Q424.71 370.707 424.211 370.336Q423.711 369.966 423.23 369.571Q422.75 369.177 422.289 368.759Q421.828 368.342 421.388 367.902Q420.949 367.462 420.531 367.001Q420.113 366.54 419.719 366.06Q419.324 365.579 418.954 365.08Q418.583 364.58 418.238 364.063Q417.892 363.546 417.573 363.013Q417.253 362.479 416.96 361.931Q416.667 361.382 416.401 360.82Q416.135 360.258 415.897 359.683Q415.659 359.109 415.449 358.523Q415.24 357.938 415.059 357.343Q414.879 356.748 414.728 356.144Q414.577 355.541 414.455 354.931Q414.334 354.321 414.243 353.706Q414.152 353.091 414.091 352.472Q414.03 351.853 413.999 351.232Q413.969 350.611 413.969 349.989L413.969 241.912Q413.969 241.29 413.999 240.669Q414.03 240.047 414.091 239.429Q414.152 238.81 414.243 238.195Q414.334 237.579 414.455 236.969Q414.577 236.36 414.728 235.756Q414.879 235.153 415.059 234.558Q415.24 233.963 415.449 233.377Q415.659 232.792 415.897 232.217Q416.135 231.643 416.401 231.081Q416.667 230.518 416.96 229.97Q417.253 229.421 417.573 228.888Q417.892 228.355 418.238 227.838Q418.583 227.321 418.954 226.821Q419.324 226.322 419.719 225.841Q420.113 225.36 420.531 224.899Q420.949 224.439 421.388 223.999Q421.828 223.559 422.289 223.141Q422.75 222.724 423.23 222.329Q423.711 221.935 424.211 221.564Q424.71 221.194 425.227 220.848Q425.744 220.503 426.278 220.183Q426.811 219.863 427.359 219.57Q427.908 219.277 428.47 219.011Q429.032 218.745 429.607 218.507Q430.181 218.269 430.767 218.06Q431.352 217.85 431.948 217.67Q432.543 217.489 433.146 217.338Q433.749 217.187 434.359 217.066Q434.969 216.945 435.584 216.853Q436.199 216.762 436.818 216.701Q437.437 216.64 438.058 216.61Q438.679 216.579 439.301 216.579Z" id="Rectangle-3" fill="#1976D2" fill-rule="evenodd" stroke="none" />
      <path d="M413.969 191.832L464.636 191.832L464.636 245.909L413.969 245.909L413.969 191.832Z" id="Rectangle-4" fill="#1976D2" fill-rule="evenodd" stroke="none" />
    </g>
    <path d="M443.535 120.574C448.485 110.21 466.91 106.734 484.687 112.809C502.465 118.885 512.863 132.212 507.913 142.576C502.963 152.94 484.539 156.416 466.761 150.34C448.983 144.265 438.585 130.938 443.535 120.574Z" id="Oval" fill="#1976D2" fill-rule="evenodd" stroke="none" />
  </g>
</svg>